TC12FP-Medium.ufo
<glyph name="exclam" format="1">
  <advance width="496"/>
  <unicode hex="0021"/>
  <outline>
    <contour>
      <point x="128" y="1472" type="line"/>
      <point x="128" y="496" type="line"/>
      <point x="384" y="496" type="line"/>
      <point x="384" y="1472" type="line"/>
    </contour>
    <contour>
      <point x="384" y="0" type="line"/>
      <point x="384" y="288" type="line"/>
      <point x="128" y="288" type="line"/>
      <point x="128" y="0" type="line"/>
    </contour>
  </outline>
</glyph>
<glyph name="numbersign" format="1">
  <advance width="1568"/>
  <unicode hex="0023"/>
  <outline>
    <contour>
      <point x="898" y="608" type="line"/>
      <point x="642" y="608" type="line"/>
      <point x="686" y="864" type="line"/>
      <point x="942" y="864" type="line"/>
    </contour>
    <contour>
      <point x="792" y="0" type="line"/>
      <point x="1048" y="0" type="line"/>
      <point x="1112" y="368" type="line"/>
      <point x="1376" y="368" type="line"/>
      <point x="1376" y="608" type="line"/>
      <point x="1154" y="608" type="line"/>
      <point x="1198" y="864" type="line"/>
      <point x="1472" y="864" type="line"/>
      <point x="1472" y="1104" type="line"/>
      <point x="1240" y="1104" type="line"/>
      <point x="1304" y="1472" type="line"/>
      <point x="1048" y="1472" type="line"/>
      <point x="984" y="1104" type="line"/>
      <point x="728" y="1104" type="line"/>
      <point x="792" y="1472" type="line"/>
      <point x="536" y="1472" type="line"/>
      <point x="472" y="1104" type="line"/>
      <point x="192" y="1104" type="line"/>
      <point x="192" y="864" type="line"/>
      <point x="430" y="864" type="line"/>
      <point x="386" y="608" type="line"/>
      <point x="96" y="608" type="line"/>
      <point x="96" y="368" type="line"/>
      <point x="344" y="368" type="line"/>
      <point x="280" y="0" type="line"/>
      <point x="536" y="0" type="line"/>
      <point x="600" y="368" type="line"/>
      <point x="856" y="368" type="line"/>
    </contour>
  </outline>
</glyph>
<glyph name="dollar" format="1">
  <advance width="800"/>
  <unicode hex="0024"/>
  <outline>
    <contour>
      <point x="476" y="-192" type="line"/>
      <point x="476" y="-16" type="line"/>
      <point x="642" y="28"/>
      <point x="768" y="164"/>
      <point x="768" y="384" type="curve" smooth="yes"/>
      <point x="768" y="544"/>
      <point x="736" y="624"/>
      <point x="640" y="720" type="curve" smooth="yes"/>
      <point x="448" y="912" type="line" smooth="yes"/>
      <point x="368" y="992"/>
      <point x="304" y="1040"/>
      <point x="304" y="1120" type="curve" smooth="yes"/>
      <point x="304" y="1216"/>
      <point x="384" y="1264"/>
      <point x="480" y="1264" type="curve" smooth="yes"/>
      <point x="560" y="1264"/>
      <point x="640" y="1232"/>
      <point x="704" y="1200" type="curve"/>
      <point x="704" y="1440" type="line"/>
      <point x="645" y="1484"/>
      <point x="560" y="1501"/>
      <point x="472" y="1504" type="curve"/>
      <point x="472" y="1664" type="line"/>
      <point x="320" y="1664" type="line"/>
      <point x="320" y="1492" type="line"/>
      <point x="122" y="1450"/>
      <point x="32" y="1308"/>
      <point x="32" y="1120" type="curve" smooth="yes"/>
      <point x="32" y="960"/>
      <point x="80" y="880"/>
      <point x="192" y="768" type="curve" smooth="yes"/>
      <point x="384" y="576" type="line" smooth="yes"/>
      <point x="448" y="512"/>
      <point x="480" y="464"/>
      <point x="480" y="384" type="curve" smooth="yes"/>
      <point x="480" y="288"/>
      <point x="416" y="208"/>
      <point x="320" y="208" type="curve" smooth="yes"/>
      <point x="240" y="208"/>
      <point x="160" y="224"/>
      <point x="64" y="272" type="curve"/>
      <point x="64" y="32" type="line"/>
      <point x="135" y="-11"/>
      <point x="232" y="-28"/>
      <point x="320" y="-31" type="curve"/>
      <point x="320" y="-192" type="line"/>
    </contour>
  </outline>
</glyph>
<glyph name="percent" format="1">
  <advance width="1728"/>
  <unicode hex="0025"/>
  <outline>
    <contour>
      <point x="1136" y="1472" type="line"/>
      <point x="400" y="0" type="line"/>
      <point x="656" y="0" type="line"/>
      <point x="1392" y="1472" type="line"/>
    </contour>
    <contour>
      <point x="432" y="704" type="curve" smooth="yes"/>
      <point x="624" y="704"/>
      <point x="768" y="864"/>
      <point x="768" y="1056" type="curve" smooth="yes"/>
      <point x="768" y="1248"/>
      <point x="624" y="1408"/>
      <point x="432" y="1408" type="curve" smooth="yes"/>
      <point x="240" y="1408"/>
      <point x="96" y="1248"/>
      <point x="96" y="1056" type="curve" smooth="yes"/>
      <point x="96" y="864"/>
      <point x="240" y="704"/>
    </contour>
    <contour>
      <point x="432" y="896" type="curve" smooth="yes"/>
      <point x="336" y="896"/>
      <point x="272" y="960"/>
      <point x="272" y="1056" type="curve" smooth="yes"/>
      <point x="272" y="1152"/>
      <point x="336" y="1216"/>
      <point x="432" y="1216" type="curve" smooth="yes"/>
      <point x="528" y="1216"/>
      <point x="592" y="1152"/>
      <point x="592" y="1056" type="curve" smooth="yes"/>
      <point x="592" y="960"/>
      <point x="528" y="896"/>
    </contour>
    <contour>
      <point x="1296" y="-32" type="curve" smooth="yes"/>
      <point x="1488" y="-32"/>
      <point x="1632" y="128"/>
      <point x="1632" y="320" type="curve" smooth="yes"/>
      <point x="1632" y="512"/>
      <point x="1488" y="672"/>
      <point x="1296" y="672" type="curve" smooth="yes"/>
      <point x="1104" y="672"/>
      <point x="960" y="512"/>
      <point x="960" y="320" type="curve" smooth="yes"/>
      <point x="960" y="128"/>
      <point x="1104" y="-32"/>
    </contour>
    <contour>
      <point x="1296" y="160" type="curve" smooth="yes"/>
      <point x="1200" y="160"/>
      <point x="1136" y="224"/>
      <point x="1136" y="320" type="curve" smooth="yes"/>
      <point x="1136" y="416"/>
      <point x="1200" y="480"/>
      <point x="1296" y="480" type="curve" smooth="yes"/>
      <point x="1392" y="480"/>
      <point x="1456" y="416"/>
      <point x="1456" y="320" type="curve" smooth="yes"/>
      <point x="1456" y="224"/>
      <point x="1392" y="160"/>
    </contour>
  </outline>
</glyph>
<glyph name="ampersand" format="1">
  <advance width="1424"/>
  <unicode hex="0026"/>
  <outline>
    <contour>
      <point x="656" y="208" type="curve" smooth="yes"/>
      <point x="528" y="208"/>
      <point x="400" y="304"/>
      <point x="400" y="448" type="curve" smooth="yes"/>
      <point x="400" y="536"/>
      <point x="446" y="595"/>
      <point x="557" y="665" type="curve"/>
      <point x="830" y="263" type="line"/>
      <point x="781" y="229"/>
      <point x="724" y="208"/>
    </contour>
    <contour>
      <point x="656" y="1504" type="curve" smooth="yes"/>
      <point x="400" y="1504"/>
      <point x="304" y="1328"/>
      <point x="304" y="1184" type="curve" smooth="yes"/>
      <point x="304" y="1088"/>
      <point x="336" y="984"/>
      <point x="400" y="896" type="curve" smooth="yes"/>
      <point x="434" y="846" type="line"/>
      <point x="268" y="768"/>
      <point x="128" y="619"/>
      <point x="128" y="448" type="curve" smooth="yes"/>
      <point x="128" y="160"/>
      <point x="336" y="-32"/>
      <point x="656" y="-32" type="curve" smooth="yes"/>
      <point x="778" y="-32"/>
      <point x="883" y="1"/>
      <point x="971" y="55" type="curve"/>
      <point x="1008" y="0" type="line"/>
      <point x="1344" y="0" type="line"/>
      <point x="1172" y="250" type="line"/>
      <point x="1254" y="372"/>
      <point x="1296" y="515"/>
      <point x="1296" y="640" type="curve"/>
      <point x="1024" y="640" type="line"/>
      <point x="1024" y="605"/>
      <point x="1015" y="556"/>
      <point x="998" y="504" type="curve"/>
      <point x="790" y="806" type="line"/>
      <point x="908" y="896" type="line"/>
      <point x="996" y="972"/>
      <point x="1024" y="1088"/>
      <point x="1024" y="1184" type="curve" smooth="yes"/>
      <point x="1024" y="1328"/>
      <point x="912" y="1504"/>
    </contour>
    <contour>
      <point x="656" y="1264" type="curve" smooth="yes"/>
      <point x="688" y="1264"/>
      <point x="736" y="1248"/>
      <point x="736" y="1184" type="curve" smooth="yes"/>
      <point x="736" y="1104"/>
      <point x="696" y="1060"/>
      <point x="672" y="1024" type="curve" smooth="yes"/>
      <point x="656" y="1001" type="line"/>
      <point x="640" y="1024" type="line" smooth="yes"/>
      <point x="616" y="1060"/>
      <point x="576" y="1104"/>
      <point x="576" y="1184" type="curve" smooth="yes"/>
      <point x="576" y="1248"/>
      <point x="624" y="1264"/>
    </contour>
  </outline>
</glyph>
<glyph name="parenright" format="1">
  <advance width="608"/>
  <unicode hex="0029"/>
  <outline>
    <contour>
      <point x="272" y="1472" type="curve"/>
      <point x="48" y="1472" type="line"/>
      <point x="192" y="1184"/>
      <point x="256" y="928"/>
      <point x="256" y="640" type="curve" smooth="yes"/>
      <point x="256" y="352"/>
      <point x="192" y="96"/>
      <point x="48" y="-192" type="curve"/>
      <point x="272" y="-192" type="line"/>
      <point x="416" y="96"/>
      <point x="480" y="352"/>
      <point x="480" y="640" type="curve" smooth="yes"/>
      <point x="480" y="928"/>
      <point x="416" y="1184"/>
    </contour>
  </outline>
</glyph>
<glyph name="asterisk" format="1">
  <advance width="948"/>
  <unicode hex="002A"/>
  <outline>
    <contour>
      <point x="640" y="764" type="line"/>
      <point x="808" y="884" type="line"/>
      <point x="650" y="1069" type="line"/>
      <point x="884" y="1128" type="line"/>
      <point x="824" y="1320" type="line"/>
      <point x="597" y="1231" type="line"/>
      <point x="616" y="1472" type="line"/>
      <point x="408" y="1472" type="line"/>
      <point x="427" y="1231" type="line"/>
      <point x="200" y="1320" type="line"/>
      <point x="140" y="1128" type="line"/>
      <point x="374" y="1069" type="line"/>
      <point x="216" y="884" type="line"/>
      <point x="384" y="764" type="line"/>
      <point x="512" y="971" type="line"/>
    </contour>
  </outline>
</glyph>
<glyph name="comma" format="1">
  <advance width="480"/>
  <unicode hex="002C"/>
  <outline>
    <contour>
      <point x="368" y="-320" type="line"/>
      <point x="368" y="288" type="line"/>
      <point x="112" y="288" type="line"/>
      <point x="112" y="-384" type="line"/>
    </contour>
  </outline>
</glyph>
<glyph name="hyphen" format="1">
  <advance width="960"/>
  <unicode hex="002D"/>
  <outline>
    <contour>
      <point x="768" y="768" type="line"/>
      <point x="64" y="768" type="line"/>
      <point x="64" y="528" type="line"/>
      <point x="768" y="528" type="line"/>
    </contour>
  </outline>
</glyph>
<glyph name="period" format="1">
  <advance width="480"/>
  <unicode hex="002E"/>
  <outline>
    <contour>
      <point x="368" y="0" type="line"/>
      <point x="368" y="288" type="line"/>
      <point x="112" y="288" type="line"/>
      <point x="112" y="0" type="line"/>
    </contour>
  </outline>
</glyph>
<glyph name="slash" format="1">
  <advance width="928"/>
  <unicode hex="002F"/>
  <outline>
    <contour>
      <point x="592" y="1472" type="line"/>
      <point x="112" y="0" type="line"/>
      <point x="336" y="0" type="line"/>
      <point x="352" y="32"/>
      <point x="816" y="1472"/>
      <point x="816" y="1472" type="curve"/>
    </contour>
  </outline>
</glyph>
<glyph name="one" format="1">
  <advance width="624"/>
  <unicode hex="0031"/>
  <outline>
    <contour>
      <point x="528" y="0" type="line"/>
      <point x="528" y="1472" type="line"/>
      <point x="96" y="1472" type="line"/>
      <point x="96" y="1232" type="line"/>
      <point x="256" y="1232" type="line"/>
      <point x="256" y="0" type="line"/>
    </contour>
  </outline>
</glyph>
<glyph name="two" format="1">
  <advance width="992"/>
  <unicode hex="0032"/>
  <outline>
    <contour>
      <point x="864" y="0" type="line"/>
      <point x="864" y="224" type="line"/>
      <point x="419" y="224" type="line"/>
      <point x="592" y="480" type="line" smooth="yes"/>
      <point x="756" y="720"/>
      <point x="864" y="896"/>
      <point x="864" y="1088" type="curve" smooth="yes"/>
      <point x="864" y="1344"/>
      <point x="704" y="1504"/>
      <point x="416" y="1504" type="curve" smooth="yes"/>
      <point x="224" y="1504"/>
      <point x="128" y="1440"/>
      <point x="64" y="1408" type="curve"/>
      <point x="64" y="1152" type="line"/>
      <point x="128" y="1184"/>
      <point x="224" y="1248"/>
      <point x="384" y="1248" type="curve" smooth="yes"/>
      <point x="512" y="1248"/>
      <point x="592" y="1184"/>
      <point x="592" y="1056" type="curve" smooth="yes"/>
      <point x="592" y="960"/>
      <point x="468" y="768"/>
      <point x="384" y="640" type="curve" smooth="yes"/>
      <point x="64" y="160" type="line"/>
      <point x="64" y="0" type="line"/>
    </contour>
  </outline>
</glyph>
<glyph name="four" format="1">
  <advance width="960"/>
  <unicode hex="0034"/>
  <outline>
    <contour>
      <point x="864" y="0" type="line"/>
      <point x="864" y="704" type="line"/>
      <point x="608" y="704" type="line"/>
      <point x="608" y="544" type="line"/>
      <point x="411" y="544" type="line"/>
      <point x="752" y="1472" type="line"/>
      <point x="480" y="1472" type="line"/>
      <point x="96" y="384" type="line"/>
      <point x="96" y="320" type="line"/>
      <point x="608" y="320" type="line"/>
      <point x="608" y="0" type="line"/>
    </contour>
  </outline>
</glyph>
<glyph name="five" format="1">
  <advance width="992"/>
  <unicode hex="0035"/>
  <outline>
    <contour>
      <point x="352" y="-32" type="curve" smooth="yes"/>
      <point x="672" y="-32"/>
      <point x="896" y="192"/>
      <point x="896" y="480" type="curve" smooth="yes"/>
      <point x="896" y="748"/>
      <point x="702" y="960"/>
      <point x="418" y="989" type="curve"/>
      <point x="496" y="1232" type="line"/>
      <point x="864" y="1232" type="line"/>
      <point x="864" y="1472" type="line"/>
      <point x="288" y="1472" type="line"/>
      <point x="96" y="832" type="line"/>
      <point x="96" y="672" type="line"/>
      <point x="160" y="720"/>
      <point x="224" y="752"/>
      <point x="352" y="752" type="curve" smooth="yes"/>
      <point x="496" y="752"/>
      <point x="624" y="640"/>
      <point x="624" y="480" type="curve" smooth="yes"/>
      <point x="624" y="320"/>
      <point x="496" y="208"/>
      <point x="352" y="208" type="curve" smooth="yes"/>
      <point x="224" y="208"/>
      <point x="160" y="240"/>
      <point x="96" y="288" type="curve"/>
      <point x="96" y="32" type="line"/>
      <point x="160" y="0"/>
      <point x="256" y="-32"/>
    </contour>
  </outline>
</glyph>
<glyph name="six" format="1">
  <advance width="1120"/>
  <unicode hex="0036"/>
  <outline>
    <contour>
      <point x="560" y="-32" type="curve" smooth="yes"/>
      <point x="816" y="-32"/>
      <point x="1024" y="160"/>
      <point x="1024" y="416" type="curve" smooth="yes"/>
      <point x="1024" y="480" type="line" smooth="yes"/>
      <point x="1024" y="736"/>
      <point x="800" y="928"/>
      <point x="512" y="864" type="curve"/>
      <point x="816" y="1472" type="line"/>
      <point x="544" y="1472" type="line"/>
      <point x="176" y="736" type="line" smooth="yes"/>
      <point x="128" y="640"/>
      <point x="96" y="496"/>
      <point x="96" y="416" type="curve" smooth="yes"/>
      <point x="96" y="160"/>
      <point x="304" y="-32"/>
    </contour>
    <contour>
      <point x="560" y="208" type="curve" smooth="yes"/>
      <point x="448" y="208"/>
      <point x="352" y="304"/>
      <point x="352" y="416" type="curve" smooth="yes"/>
      <point x="352" y="480" type="line" smooth="yes"/>
      <point x="352" y="592"/>
      <point x="448" y="688"/>
      <point x="560" y="688" type="curve" smooth="yes"/>
      <point x="672" y="688"/>
      <point x="768" y="592"/>
      <point x="768" y="480" type="curve" smooth="yes"/>
      <point x="768" y="416" type="line" smooth="yes"/>
      <point x="768" y="304"/>
      <point x="672" y="208"/>
    </contour>
  </outline>
</glyph>
<glyph name="seven" format="1">
  <advance width="1024"/>
  <unicode hex="0037"/>
  <outline>
    <contour>
      <point x="424" y="0" type="line"/>
      <point x="928" y="1232" type="line"/>
      <point x="928" y="1472" type="line"/>
      <point x="32" y="1472" type="line"/>
      <point x="32" y="1232" type="line"/>
      <point x="664" y="1232" type="line"/>
      <point x="128" y="0" type="line"/>
    </contour>
  </outline>
</glyph>
<glyph name="eight" format="1">
  <advance width="1056"/>
  <unicode hex="0038"/>
  <outline>
    <contour>
      <point x="528" y="-32" type="curve" smooth="yes"/>
      <point x="784" y="-32"/>
      <point x="992" y="160"/>
      <point x="992" y="416" type="curve" smooth="yes"/>
      <point x="992" y="512" type="line" smooth="yes"/>
      <point x="992" y="637"/>
      <point x="928" y="746"/>
      <point x="827" y="819" type="curve"/>
      <point x="890" y="877"/>
      <point x="928" y="959"/>
      <point x="928" y="1064" type="curve" smooth="yes"/>
      <point x="928" y="1120" type="line" smooth="yes"/>
      <point x="928" y="1344"/>
      <point x="756" y="1504"/>
      <point x="528" y="1504" type="curve" smooth="yes"/>
      <point x="300" y="1504"/>
      <point x="128" y="1344"/>
      <point x="128" y="1120" type="curve" smooth="yes"/>
      <point x="128" y="1064" type="line" smooth="yes"/>
      <point x="128" y="959"/>
      <point x="166" y="877"/>
      <point x="229" y="819" type="curve"/>
      <point x="128" y="746"/>
      <point x="64" y="637"/>
      <point x="64" y="512" type="curve" smooth="yes"/>
      <point x="64" y="416" type="line" smooth="yes"/>
      <point x="64" y="160"/>
      <point x="272" y="-32"/>
    </contour>
    <contour>
      <point x="672" y="1064" type="line" smooth="yes"/>
      <point x="672" y="984"/>
      <point x="620" y="912"/>
      <point x="528" y="912" type="curve" smooth="yes"/>
      <point x="440" y="912"/>
      <point x="384" y="984"/>
      <point x="384" y="1064" type="curve" smooth="yes"/>
      <point x="384" y="1120" type="line" smooth="yes"/>
      <point x="384" y="1200"/>
      <point x="440" y="1272"/>
      <point x="528" y="1272" type="curve" smooth="yes"/>
      <point x="620" y="1272"/>
      <point x="672" y="1200"/>
      <point x="672" y="1120" type="curve" smooth="yes"/>
    </contour>
    <contour>
      <point x="736" y="512" type="curve" smooth="yes"/>
      <point x="736" y="416" type="line" smooth="yes"/>
      <point x="736" y="304"/>
      <point x="640" y="208"/>
      <point x="528" y="208" type="curve" smooth="yes"/>
      <point x="416" y="208"/>
      <point x="320" y="304"/>
      <point x="320" y="416" type="curve" smooth="yes"/>
      <point x="320" y="512" type="line" smooth="yes"/>
      <point x="320" y="624"/>
      <point x="416" y="720"/>
      <point x="528" y="720" type="curve" smooth="yes"/>
      <point x="640" y="720"/>
      <point x="736" y="624"/>
    </contour>
  </outline>
</glyph>
<glyph name="nine" format="1">
  <advance width="1056"/>
  <unicode hex="0039"/>
  <outline>
    <contour>
      <point x="544" y="0" type="line"/>
      <point x="912" y="736" type="line" smooth="yes"/>
      <point x="960" y="832"/>
      <point x="992" y="976"/>
      <point x="992" y="1056" type="curve" smooth="yes"/>
      <point x="992" y="1312"/>
      <point x="784" y="1504"/>
      <point x="528" y="1504" type="curve" smooth="yes"/>
      <point x="272" y="1504"/>
      <point x="64" y="1312"/>
      <point x="64" y="1056" type="curve" smooth="yes"/>
      <point x="64" y="992" type="line" smooth="yes"/>
      <point x="64" y="736"/>
      <point x="288" y="544"/>
      <point x="576" y="608" type="curve"/>
      <point x="272" y="0" type="line"/>
    </contour>
    <contour>
      <point x="528" y="1264" type="curve" smooth="yes"/>
      <point x="640" y="1264"/>
      <point x="736" y="1168"/>
      <point x="736" y="1056" type="curve" smooth="yes"/>
      <point x="736" y="992" type="line" smooth="yes"/>
      <point x="736" y="880"/>
      <point x="640" y="784"/>
      <point x="528" y="784" type="curve" smooth="yes"/>
      <point x="416" y="784"/>
      <point x="320" y="880"/>
      <point x="320" y="992" type="curve" smooth="yes"/>
      <point x="320" y="1056" type="line" smooth="yes"/>
      <point x="320" y="1168"/>
      <point x="416" y="1264"/>
    </contour>
  </outline>
</glyph>
<glyph name="colon" format="1">
  <advance width="496"/>
  <unicode hex="003A"/>
  <outline>
    <contour>
      <point x="384" y="736" type="line"/>
      <point x="384" y="1024" type="line"/>
      <point x="128" y="1024" type="line"/>
      <point x="128" y="736" type="line"/>
    </contour>
    <contour>
      <point x="384" y="0" type="line"/>
      <point x="384" y="288" type="line"/>
      <point x="128" y="288" type="line"/>
      <point x="128" y="0" type="line"/>
    </contour>
  </outline>
</glyph>
<glyph name="semicolon" format="1">
  <advance width="512"/>
  <unicode hex="003B"/>
  <outline>
    <contour>
      <point x="384" y="1024" type="line"/>
      <point x="128" y="1024" type="line"/>
      <point x="128" y="736" type="line"/>
      <point x="384" y="736" type="line"/>
    </contour>
    <contour>
      <point x="384" y="-320" type="line"/>
      <point x="384" y="288" type="line"/>
      <point x="128" y="288" type="line"/>
      <point x="128" y="-384" type="line"/>
    </contour>
  </outline>
</glyph>
<glyph name="question" format="1">
  <advance width="816"/>
  <unicode hex="003F"/>
  <outline>
    <contour>
      <point x="256" y="816" type="line" smooth="yes"/>
      <point x="192" y="752"/>
      <point x="192" y="688"/>
      <point x="192" y="560" type="curve" smooth="yes"/>
      <point x="192" y="496" type="line"/>
      <point x="448" y="496" type="line"/>
      <point x="448" y="560" type="line" smooth="yes"/>
      <point x="448" y="624"/>
      <point x="448" y="656"/>
      <point x="480" y="688" type="curve" smooth="yes"/>
      <point x="544" y="752" type="line" smooth="yes"/>
      <point x="656" y="864"/>
      <point x="752" y="944"/>
      <point x="752" y="1104" type="curve" smooth="yes"/>
      <point x="752" y="1328"/>
      <point x="608" y="1504"/>
      <point x="304" y="1504" type="curve" smooth="yes"/>
      <point x="224" y="1504"/>
      <point x="160" y="1488"/>
      <point x="64" y="1440" type="curve"/>
      <point x="64" y="1184" type="line"/>
      <point x="160" y="1248"/>
      <point x="224" y="1264"/>
      <point x="304" y="1264" type="curve" smooth="yes"/>
      <point x="400" y="1264"/>
      <point x="480" y="1200"/>
      <point x="480" y="1104" type="curve" smooth="yes"/>
      <point x="480" y="1024"/>
      <point x="432" y="992"/>
      <point x="352" y="912" type="curve" smooth="yes"/>
    </contour>
    <contour>
      <point x="448" y="0" type="line"/>
      <point x="448" y="288" type="line"/>
      <point x="192" y="288" type="line"/>
      <point x="192" y="0" type="line"/>
    </contour>
  </outline>
</glyph>
<glyph name="A" format="1">
  <advance width="1056"/>
  <unicode hex="0041"/>
  <outline>
    <contour>
      <point x="648" y="448" type="line"/>
      <point x="376" y="448" type="line"/>
      <point x="512" y="1145" type="line"/>
    </contour>
    <contour>
      <point x="736" y="0" type="line"/>
      <point x="1024" y="0" type="line"/>
      <point x="704" y="1472" type="line"/>
      <point x="352" y="1472" type="line"/>
      <point x="32" y="0" type="line"/>
      <point x="288" y="0" type="line"/>
      <point x="329" y="208" type="line"/>
      <point x="695" y="208" type="line"/>
    </contour>
  </outline>
</glyph>
<glyph name="B" format="1">
  <advance width="1088"/>
  <unicode hex="0042"/>
  <outline>
    <contour>
      <point x="496" y="0" type="line" smooth="yes"/>
      <point x="880" y="0"/>
      <point x="1024" y="160"/>
      <point x="1024" y="448" type="curve" smooth="yes"/>
      <point x="1024" y="632"/>
      <point x="920" y="731"/>
      <point x="790" y="779" type="curve"/>
      <point x="889" y="829"/>
      <point x="960" y="916"/>
      <point x="960" y="1056" type="curve" smooth="yes"/>
      <point x="960" y="1312"/>
      <point x="816" y="1472"/>
      <point x="496" y="1472" type="curve" smooth="yes"/>
      <point x="96" y="1472" type="line"/>
      <point x="96" y="0" type="line"/>
    </contour>
    <contour>
      <point x="512" y="1232" type="line" smooth="yes"/>
      <point x="624" y="1232"/>
      <point x="688" y="1152"/>
      <point x="688" y="1056" type="curve" smooth="yes"/>
      <point x="688" y="960"/>
      <point x="624" y="880"/>
      <point x="512" y="880" type="curve" smooth="yes"/>
      <point x="368" y="880" type="line"/>
      <point x="368" y="1232" type="line"/>
    </contour>
    <contour>
      <point x="368" y="240" type="line"/>
      <point x="368" y="656" type="line"/>
      <point x="560" y="656" type="line" smooth="yes"/>
      <point x="656" y="656"/>
      <point x="752" y="576"/>
      <point x="752" y="448" type="curve" smooth="yes"/>
      <point x="752" y="320"/>
      <point x="656" y="240"/>
      <point x="560" y="240" type="curve" smooth="yes"/>
    </contour>
  </outline>
</glyph>
<glyph name="C" format="1">
  <advance width="816"/>
  <unicode hex="0043"/>
  <outline>
    <contour>
      <point x="784" y="16" type="curve"/>
      <point x="784" y="256" type="line"/>
      <point x="720" y="224"/>
      <point x="640" y="208"/>
      <point x="560" y="208" type="curve" smooth="yes"/>
      <point x="400" y="208"/>
      <point x="336" y="320"/>
      <point x="336" y="480" type="curve" smooth="yes"/>
      <point x="336" y="992" type="line" smooth="yes"/>
      <point x="336" y="1152"/>
      <point x="400" y="1264"/>
      <point x="560" y="1264" type="curve" smooth="yes"/>
      <point x="640" y="1264"/>
      <point x="720" y="1248"/>
      <point x="784" y="1216" type="curve"/>
      <point x="784" y="1456" type="line"/>
      <point x="752" y="1472"/>
      <point x="656" y="1504"/>
      <point x="560" y="1504" type="curve" smooth="yes"/>
      <point x="272" y="1504"/>
      <point x="64" y="1280"/>
      <point x="64" y="1024" type="curve" smooth="yes"/>
      <point x="64" y="448" type="line" smooth="yes"/>
      <point x="64" y="192"/>
      <point x="272" y="-32"/>
      <point x="560" y="-32" type="curve" smooth="yes"/>
      <point x="656" y="-32"/>
      <point x="752" y="0"/>
    </contour>
  </outline>
</glyph>
<glyph name="D" format="1">
  <advance width="1024"/>
  <unicode hex="0044"/>
  <outline>
    <contour>
      <point x="464" y="1232" type="line" smooth="yes"/>
      <point x="592" y="1232"/>
      <point x="688" y="1152"/>
      <point x="688" y="960" type="curve" smooth="yes"/>
      <point x="688" y="512" type="line" smooth="yes"/>
      <point x="688" y="320"/>
      <point x="592" y="240"/>
      <point x="464" y="240" type="curve" smooth="yes"/>
      <point x="368" y="240" type="line"/>
      <point x="368" y="1232" type="line"/>
    </contour>
    <contour>
      <point x="96" y="0" type="line"/>
      <point x="464" y="0" type="line" smooth="yes"/>
      <point x="752" y="0"/>
      <point x="960" y="192"/>
      <point x="960" y="480" type="curve" smooth="yes"/>
      <point x="960" y="992" type="line" smooth="yes"/>
      <point x="960" y="1280"/>
      <point x="752" y="1472"/>
      <point x="464" y="1472" type="curve" smooth="yes"/>
      <point x="96" y="1472" type="line"/>
    </contour>
  </outline>
</glyph>
<glyph name="E" format="1">
  <advance width="864"/>
  <unicode hex="0045"/>
  <outline>
    <contour>
      <point x="96" y="0" type="line"/>
      <point x="800" y="0" type="line"/>
      <point x="800" y="240" type="line"/>
      <point x="368" y="240" type="line"/>
      <point x="368" y="656" type="line"/>
      <point x="736" y="656" type="line"/>
      <point x="736" y="896" type="line"/>
      <point x="368" y="896" type="line"/>
      <point x="368" y="1232" type="line"/>
      <point x="800" y="1232" type="line"/>
      <point x="800" y="1472" type="line"/>
      <point x="96" y="1472" type="line"/>
    </contour>
  </outline>
</glyph>
<glyph name="G" format="1">
  <advance width="992"/>
  <unicode hex="0047"/>
  <outline>
    <contour>
      <point x="928" y="128" type="curve"/>
      <point x="928" y="768" type="line"/>
      <point x="656" y="768" type="line"/>
      <point x="656" y="239" type="line"/>
      <point x="629" y="221"/>
      <point x="601" y="208"/>
      <point x="560" y="208" type="curve" smooth="yes"/>
      <point x="400" y="208"/>
      <point x="336" y="320"/>
      <point x="336" y="480" type="curve" smooth="yes"/>
      <point x="336" y="992" type="line" smooth="yes"/>
      <point x="336" y="1152"/>
      <point x="464" y="1264"/>
      <point x="624" y="1264" type="curve" smooth="yes"/>
      <point x="704" y="1264"/>
      <point x="800" y="1248"/>
      <point x="864" y="1216" type="curve"/>
      <point x="864" y="1456" type="line"/>
      <point x="832" y="1472"/>
      <point x="656" y="1504"/>
      <point x="560" y="1504" type="curve" smooth="yes"/>
      <point x="272" y="1504"/>
      <point x="64" y="1280"/>
      <point x="64" y="1024" type="curve" smooth="yes"/>
      <point x="64" y="448" type="line" smooth="yes"/>
      <point x="64" y="192"/>
      <point x="272" y="-32"/>
      <point x="560" y="-32" type="curve" smooth="yes"/>
      <point x="688" y="-32"/>
      <point x="832" y="16"/>
    </contour>
  </outline>
</glyph>
<glyph name="H" format="1">
  <advance width="1056"/>
  <unicode hex="0048"/>
  <outline>
    <contour>
      <point x="96" y="0" type="line"/>
      <point x="368" y="0" type="line"/>
      <point x="368" y="656" type="line"/>
      <point x="688" y="656" type="line"/>
      <point x="688" y="0" type="line"/>
      <point x="960" y="0" type="line"/>
      <point x="960" y="1472" type="line"/>
      <point x="688" y="1472" type="line"/>
      <point x="688" y="896" type="line"/>
      <point x="368" y="896" type="line"/>
      <point x="368" y="1472" type="line"/>
      <point x="96" y="1472" type="line"/>
    </contour>
  </outline>
</glyph>
<glyph name="J" format="1">
  <advance width="696"/>
  <unicode hex="004A"/>
  <outline>
    <contour>
      <point x="336" y="1472" type="line"/>
      <point x="336" y="448" type="line" smooth="yes"/>
      <point x="336" y="336"/>
      <point x="280" y="208"/>
      <point x="160" y="208" type="curve" smooth="yes"/>
      <point x="96" y="208"/>
      <point x="64" y="224"/>
      <point x="32" y="240" type="curve"/>
      <point x="32" y="16" type="line"/>
      <point x="64" y="-16"/>
      <point x="128" y="-32"/>
      <point x="192" y="-32" type="curve" smooth="yes"/>
      <point x="480" y="-32"/>
      <point x="608" y="192"/>
      <point x="608" y="480" type="curve" smooth="yes"/>
      <point x="608" y="1472" type="line"/>
    </contour>
  </outline>
</glyph>
<glyph name="K" format="1">
  <advance width="992"/>
  <unicode hex="004B"/>
  <outline>
    <contour>
      <point x="672" y="0" type="line"/>
      <point x="960" y="0" type="line"/>
      <point x="624" y="800" type="line"/>
      <point x="960" y="1472" type="line"/>
      <point x="704" y="1472" type="line"/>
      <point x="368" y="800" type="line"/>
      <point x="368" y="1472" type="line"/>
      <point x="96" y="1472" type="line"/>
      <point x="96" y="0" type="line"/>
      <point x="368" y="0" type="line"/>
      <point x="368" y="724" type="line"/>
    </contour>
  </outline>
</glyph>
<glyph name="L" format="1">
  <advance width="832"/>
  <unicode hex="004C"/>
  <outline>
    <contour>
      <point x="96" y="0" type="line"/>
      <point x="800" y="0" type="line"/>
      <point x="800" y="240" type="line"/>
      <point x="368" y="240" type="line"/>
      <point x="368" y="1472" type="line"/>
      <point x="96" y="1472" type="line"/>
    </contour>
  </outline>
</glyph>
<glyph name="M" format="1">
  <advance width="1280"/>
  <unicode hex="004D"/>
  <outline>
    <contour>
      <point x="368" y="896" type="line"/>
      <point x="640" y="512" type="line"/>
      <point x="912" y="896" type="line"/>
      <point x="912" y="0" type="line"/>
      <point x="1184" y="0" type="line"/>
      <point x="1184" y="1472" type="line"/>
      <point x="992" y="1472" type="line"/>
      <point x="640" y="928" type="line"/>
      <point x="288" y="1472" type="line"/>
      <point x="96" y="1472" type="line"/>
      <point x="96" y="0" type="line"/>
      <point x="368" y="0" type="line"/>
    </contour>
  </outline>
</glyph>
<glyph name="N" format="1">
  <advance width="1104"/>
  <unicode hex="004E"/>
  <outline>
    <contour>
      <point x="368" y="832" type="line"/>
      <point x="784" y="0" type="line"/>
      <point x="1008" y="0" type="line"/>
      <point x="1008" y="1472" type="line"/>
      <point x="736" y="1472" type="line"/>
      <point x="736" y="640" type="line"/>
      <point x="320" y="1472" type="line"/>
      <point x="96" y="1472" type="line"/>
      <point x="96" y="0" type="line"/>
      <point x="368" y="0" type="line"/>
    </contour>
  </outline>
</glyph>
<glyph name="O" format="1">
  <advance width="1120"/>
  <unicode hex="004F"/>
  <outline>
    <contour>
      <point x="1056" y="480" type="curve" smooth="yes"/>
      <point x="1056" y="992" type="line" smooth="yes"/>
      <point x="1056" y="1280"/>
      <point x="848" y="1504"/>
      <point x="560" y="1504" type="curve" smooth="yes"/>
      <point x="272" y="1504"/>
      <point x="64" y="1280"/>
      <point x="64" y="992" type="curve" smooth="yes"/>
      <point x="64" y="480" type="line" smooth="yes"/>
      <point x="64" y="192"/>
      <point x="272" y="-32"/>
      <point x="560" y="-32" type="curve" smooth="yes"/>
      <point x="848" y="-32"/>
      <point x="1056" y="192"/>
    </contour>
    <contour>
      <point x="784" y="1024" type="curve" smooth="yes"/>
      <point x="784" y="448" type="line" smooth="yes"/>
      <point x="784" y="320"/>
      <point x="704" y="208"/>
      <point x="560" y="208" type="curve" smooth="yes"/>
      <point x="416" y="208"/>
      <point x="336" y="320"/>
      <point x="336" y="448" type="curve" smooth="yes"/>
      <point x="336" y="1024" type="line" smooth="yes"/>
      <point x="336" y="1152"/>
      <point x="416" y="1264"/>
      <point x="560" y="1264" type="curve" smooth="yes"/>
      <point x="704" y="1264"/>
      <point x="784" y="1152"/>
    </contour>
  </outline>
</glyph>
<glyph name="P" format="1">
  <advance width="1024"/>
  <unicode hex="0050"/>
  <outline>
    <contour>
      <point x="464" y="1232" type="line" smooth="yes"/>
      <point x="608" y="1232"/>
      <point x="688" y="1120"/>
      <point x="688" y="992" type="curve" smooth="yes"/>
      <point x="688" y="864"/>
      <point x="608" y="752"/>
      <point x="464" y="752" type="curve" smooth="yes"/>
      <point x="368" y="752" type="line"/>
      <point x="368" y="1232" type="line"/>
    </contour>
    <contour>
      <point x="464" y="512" type="line" smooth="yes"/>
      <point x="768" y="512"/>
      <point x="960" y="704"/>
      <point x="960" y="992" type="curve" smooth="yes"/>
      <point x="960" y="1280"/>
      <point x="768" y="1472"/>
      <point x="464" y="1472" type="curve" smooth="yes"/>
      <point x="96" y="1472" type="line"/>
      <point x="96" y="0" type="line"/>
      <point x="368" y="0" type="line"/>
      <point x="368" y="512" type="line"/>
    </contour>
  </outline>
</glyph>
<glyph name="Q" format="1">
  <advance width="1152"/>
  <unicode hex="0051"/>
  <outline>
    <contour>
      <point x="560" y="0" type="curve" smooth="yes"/>
      <point x="1120" y="0" type="line"/>
      <point x="1002" y="235" type="line"/>
      <point x="1038" y="305"/>
      <point x="1056" y="387"/>
      <point x="1056" y="480" type="curve" smooth="yes"/>
      <point x="1056" y="992" type="line" smooth="yes"/>
      <point x="1056" y="1280"/>
      <point x="848" y="1504"/>
      <point x="560" y="1504" type="curve" smooth="yes"/>
      <point x="272" y="1504"/>
      <point x="64" y="1280"/>
      <point x="64" y="992" type="curve" smooth="yes"/>
      <point x="64" y="480" type="line" smooth="yes"/>
      <point x="64" y="192"/>
      <point x="272" y="0"/>
    </contour>
    <contour>
      <point x="784" y="448" type="line" smooth="yes"/>
      <point x="784" y="320"/>
      <point x="704" y="240"/>
      <point x="560" y="240" type="curve" smooth="yes"/>
      <point x="416" y="240"/>
      <point x="336" y="320"/>
      <point x="336" y="448" type="curve" smooth="yes"/>
      <point x="336" y="1024" type="line" smooth="yes"/>
      <point x="336" y="1152"/>
      <point x="416" y="1264"/>
      <point x="560" y="1264" type="curve" smooth="yes"/>
      <point x="704" y="1264"/>
      <point x="784" y="1152"/>
      <point x="784" y="1024" type="curve" smooth="yes"/>
    </contour>
  </outline>
</glyph>
<glyph name="R" format="1">
  <advance width="1104"/>
  <unicode hex="0052"/>
  <outline>
    <contour>
      <point x="464" y="1232" type="line" smooth="yes"/>
      <point x="608" y="1232"/>
      <point x="688" y="1120"/>
      <point x="688" y="992" type="curve" smooth="yes"/>
      <point x="688" y="864"/>
      <point x="608" y="752"/>
      <point x="464" y="752" type="curve" smooth="yes"/>
      <point x="368" y="752" type="line"/>
      <point x="368" y="1232" type="line"/>
    </contour>
    <contour>
      <point x="464" y="512" type="line" smooth="yes"/>
      <point x="486" y="512"/>
      <point x="507" y="513"/>
      <point x="528" y="515" type="curve"/>
      <point x="760" y="0" type="line"/>
      <point x="1040" y="0" type="line"/>
      <point x="771" y="599" type="line"/>
      <point x="891" y="682"/>
      <point x="960" y="820"/>
      <point x="960" y="992" type="curve" smooth="yes"/>
      <point x="960" y="1280"/>
      <point x="768" y="1472"/>
      <point x="464" y="1472" type="curve" smooth="yes"/>
      <point x="96" y="1472" type="line"/>
      <point x="96" y="0" type="line"/>
      <point x="368" y="0" type="line"/>
      <point x="368" y="512" type="line"/>
    </contour>
  </outline>
</glyph>
<glyph name="T" format="1">
  <advance width="880"/>
  <unicode hex="0054"/>
  <outline>
    <contour>
      <point x="304" y="0" type="line"/>
      <point x="576" y="0" type="line"/>
      <point x="576" y="1232" type="line"/>
      <point x="848" y="1232" type="line"/>
      <point x="848" y="1472" type="line"/>
      <point x="32" y="1472" type="line"/>
      <point x="32" y="1232" type="line"/>
      <point x="304" y="1232" type="line"/>
    </contour>
  </outline>
</glyph>
<glyph name="U" format="1">
  <advance width="1040"/>
  <unicode hex="0055"/>
  <outline>
    <contour>
      <point x="88" y="1472" type="line"/>
      <point x="88" y="448" type="line" smooth="yes"/>
      <point x="88" y="160"/>
      <point x="248" y="-32"/>
      <point x="520" y="-32" type="curve" smooth="yes"/>
      <point x="792" y="-32"/>
      <point x="952" y="160"/>
      <point x="952" y="448" type="curve" smooth="yes"/>
      <point x="952" y="1472" type="line"/>
      <point x="680" y="1472" type="line"/>
      <point x="680" y="416" type="line" smooth="yes"/>
      <point x="680" y="320"/>
      <point x="616" y="256"/>
      <point x="520" y="256" type="curve" smooth="yes"/>
      <point x="424" y="256"/>
      <point x="360" y="320"/>
      <point x="360" y="416" type="curve" smooth="yes"/>
      <point x="360" y="1472" type="line"/>
    </contour>
  </outline>
</glyph>
<glyph name="V" format="1">
  <advance width="1056"/>
  <unicode hex="0056"/>
  <outline>
    <contour>
      <point x="352" y="0" type="line"/>
      <point x="704" y="0" type="line"/>
      <point x="1024" y="1472" type="line"/>
      <point x="768" y="1472" type="line"/>
      <point x="544" y="327" type="line"/>
      <point x="320" y="1472" type="line"/>
      <point x="32" y="1472" type="line"/>
    </contour>
  </outline>
</glyph>
<glyph name="W" format="1">
  <advance width="1632"/>
  <unicode hex="0057"/>
  <outline>
    <contour>
      <point x="352" y="0" type="line"/>
      <point x="672" y="0" type="line"/>
      <point x="804" y="812" type="line"/>
      <point x="928" y="0" type="line"/>
      <point x="1280" y="0" type="line"/>
      <point x="1600" y="1472" type="line"/>
      <point x="1344" y="1472" type="line"/>
      <point x="1128" y="368" type="line"/>
      <point x="960" y="1476" type="line"/>
      <point x="704" y="1472" type="line"/>
      <point x="536" y="368" type="line"/>
      <point x="320" y="1472" type="line"/>
      <point x="32" y="1472" type="line"/>
    </contour>
  </outline>
</glyph>
<glyph name="X" format="1">
  <advance width="1104"/>
  <unicode hex="0058"/>
  <outline>
    <contour>
      <point x="784" y="0" type="line"/>
      <point x="1072" y="0" type="line"/>
      <point x="720" y="784" type="line"/>
      <point x="1056" y="1472" type="line"/>
      <point x="800" y="1472" type="line"/>
      <point x="582" y="1025" type="line"/>
      <point x="384" y="1472" type="line"/>
      <point x="96" y="1472" type="line"/>
      <point x="400" y="784" type="line"/>
      <point x="32" y="0" type="line"/>
      <point x="288" y="0" type="line"/>
      <point x="542" y="540" type="line"/>
    </contour>
  </outline>
</glyph>
<glyph name="Y" format="1">
  <advance width="1024"/>
  <unicode hex="0059"/>
  <outline>
    <contour>
      <point x="360" y="732" type="line"/>
      <point x="360" y="0" type="line"/>
      <point x="632" y="0" type="line"/>
      <point x="632" y="732" type="line"/>
      <point x="992" y="1472" type="line"/>
      <point x="736" y="1472" type="line"/>
      <point x="513" y="1014" type="line"/>
      <point x="320" y="1472" type="line"/>
      <point x="32" y="1472" type="line"/>
    </contour>
  </outline>
</glyph>
<glyph name="Z" format="1">
  <advance width="896"/>
  <unicode hex="005A"/>
  <outline>
    <contour>
      <point x="832" y="0" type="line"/>
      <point x="832" y="240" type="line"/>
      <point x="352" y="240" type="line"/>
      <point x="832" y="1280" type="line"/>
      <point x="832" y="1472" type="line"/>
      <point x="64" y="1472" type="line"/>
      <point x="64" y="1232" type="line"/>
      <point x="544" y="1232" type="line"/>
      <point x="64" y="192" type="line"/>
      <point x="64" y="0" type="line"/>
    </contour>
  </outline>
</glyph>
<glyph name="backslash" format="1">
  <advance width="928"/>
  <unicode hex="005C"/>
  <outline>
    <contour>
      <point x="344" y="1472" type="line"/>
      <point x="120" y="1472" type="line"/>
      <point x="584" y="0" type="line"/>
      <point x="808" y="0" type="line"/>
    </contour>
  </outline>
</glyph>
<glyph name="a" format="1">
  <advance width="880"/>
  <unicode hex="0061"/>
  <outline>
    <contour>
      <point x="432" y="192" type="curve" smooth="yes"/>
      <point x="368" y="192"/>
      <point x="320" y="264"/>
      <point x="320" y="320" type="curve" smooth="yes"/>
      <point x="320" y="376"/>
      <point x="368" y="448"/>
      <point x="432" y="448" type="curve" smooth="yes"/>
      <point x="544" y="448" type="line"/>
      <point x="544" y="320" type="line" smooth="yes"/>
      <point x="544" y="264"/>
      <point x="496" y="192"/>
    </contour>
    <contour>
      <point x="640" y="0" type="line"/>
      <point x="800" y="0" type="line"/>
      <point x="800" y="640" type="line" smooth="yes"/>
      <point x="800" y="928"/>
      <point x="640" y="1056"/>
      <point x="416" y="1056" type="curve" smooth="yes"/>
      <point x="288" y="1056"/>
      <point x="192" y="1024"/>
      <point x="128" y="992" type="curve"/>
      <point x="128" y="784" type="line"/>
      <point x="192" y="800"/>
      <point x="256" y="832"/>
      <point x="384" y="832" type="curve" smooth="yes"/>
      <point x="480" y="832"/>
      <point x="544" y="784"/>
      <point x="544" y="672" type="curve" smooth="yes"/>
      <point x="544" y="640" type="line"/>
      <point x="368" y="640" type="line" smooth="yes"/>
      <point x="176" y="640"/>
      <point x="64" y="480"/>
      <point x="64" y="320" type="curve" smooth="yes"/>
      <point x="64" y="128"/>
      <point x="176" y="-32"/>
      <point x="368" y="-32" type="curve" smooth="yes"/>
      <point x="477" y="-32"/>
      <point x="550" y="20"/>
      <point x="593" y="94" type="curve"/>
    </contour>
  </outline>
</glyph>
<glyph name="c" format="1">
  <advance width="752"/>
  <unicode hex="0063"/>
  <outline>
    <contour>
      <point x="704" y="20" type="curve"/>
      <point x="704" y="240" type="line"/>
      <point x="640" y="208"/>
      <point x="608" y="192"/>
      <point x="512" y="192" type="curve" smooth="yes"/>
      <point x="384" y="192"/>
      <point x="320" y="256"/>
      <point x="320" y="416" type="curve" smooth="yes"/>
      <point x="320" y="608" type="line" smooth="yes"/>
      <point x="320" y="768"/>
      <point x="384" y="832"/>
      <point x="512" y="832" type="curve" smooth="yes"/>
      <point x="608" y="832"/>
      <point x="640" y="816"/>
      <point x="704" y="784" type="curve"/>
      <point x="704" y="1004" type="line"/>
      <point x="672" y="1024"/>
      <point x="592" y="1056"/>
      <point x="480" y="1056" type="curve" smooth="yes"/>
      <point x="224" y="1056"/>
      <point x="64" y="896"/>
      <point x="64" y="640" type="curve" smooth="yes"/>
      <point x="64" y="384" type="line" smooth="yes"/>
      <point x="64" y="128"/>
      <point x="224" y="-32"/>
      <point x="480" y="-32" type="curve" smooth="yes"/>
      <point x="592" y="-32"/>
      <point x="668" y="0"/>
    </contour>
  </outline>
</glyph>
<glyph name="d" format="1">
  <advance width="992"/>
  <unicode hex="0064"/>
  <outline>
    <contour>
      <point x="480" y="192" type="curve" smooth="yes"/>
      <point x="392" y="192"/>
      <point x="320" y="264"/>
      <point x="320" y="352" type="curve" smooth="yes"/>
      <point x="320" y="672" type="line" smooth="yes"/>
      <point x="320" y="760"/>
      <point x="392" y="832"/>
      <point x="480" y="832" type="curve" smooth="yes"/>
      <point x="568" y="832"/>
      <point x="640" y="760"/>
      <point x="640" y="672" type="curve" smooth="yes"/>
      <point x="640" y="352" type="line" smooth="yes"/>
      <point x="640" y="264"/>
      <point x="568" y="192"/>
    </contour>
    <contour>
      <point x="736" y="0" type="line"/>
      <point x="896" y="0" type="line"/>
      <point x="896" y="1536" type="line"/>
      <point x="640" y="1472" type="line"/>
      <point x="640" y="961" type="line"/>
      <point x="584" y="1020"/>
      <point x="508" y="1056"/>
      <point x="416" y="1056" type="curve" smooth="yes"/>
      <point x="224" y="1056"/>
      <point x="64" y="896"/>
      <point x="64" y="704" type="curve" smooth="yes"/>
      <point x="64" y="320" type="line" smooth="yes"/>
      <point x="64" y="128"/>
      <point x="224" y="-32"/>
      <point x="416" y="-32" type="curve" smooth="yes"/>
      <point x="531" y="-32"/>
      <point x="624" y="26"/>
      <point x="679" y="114" type="curve"/>
    </contour>
  </outline>
</glyph>
<glyph name="e" format="1">
  <advance width="928"/>
  <unicode hex="0065"/>
  <outline>
    <contour>
      <point x="800" y="32" type="curve"/>
      <point x="800" y="240" type="line"/>
      <point x="736" y="224"/>
      <point x="640" y="192"/>
      <point x="512" y="192" type="curve" smooth="yes"/>
      <point x="416" y="192"/>
      <point x="320" y="240"/>
      <point x="320" y="352" type="curve" smooth="yes"/>
      <point x="320" y="416" type="line"/>
      <point x="864" y="416" type="line"/>
      <point x="864" y="640" type="line" smooth="yes"/>
      <point x="864" y="896"/>
      <point x="736" y="1056"/>
      <point x="480" y="1056" type="curve" smooth="yes"/>
      <point x="224" y="1056"/>
      <point x="64" y="896"/>
      <point x="64" y="640" type="curve" smooth="yes"/>
      <point x="64" y="384" type="line" smooth="yes"/>
      <point x="64" y="96"/>
      <point x="256" y="-32"/>
      <point x="480" y="-32" type="curve" smooth="yes"/>
      <point x="608" y="-32"/>
      <point x="736" y="0"/>
    </contour>
    <contour>
      <point x="320" y="672" type="line" smooth="yes"/>
      <point x="320" y="760"/>
      <point x="392" y="832"/>
      <point x="480" y="832" type="curve" smooth="yes"/>
      <point x="568" y="832"/>
      <point x="640" y="760"/>
      <point x="640" y="672" type="curve" smooth="yes"/>
      <point x="640" y="608" type="line"/>
      <point x="320" y="608" type="line"/>
    </contour>
  </outline>
</glyph>
<glyph name="f" format="1">
  <advance width="640"/>
  <unicode hex="0066"/>
  <outline>
    <contour>
      <point x="160" y="1248" type="curve" smooth="yes"/>
      <point x="160" y="1024" type="line"/>
      <point x="32" y="1024" type="line"/>
      <point x="32" y="800" type="line"/>
      <point x="160" y="800" type="line"/>
      <point x="160" y="0" type="line"/>
      <point x="416" y="0" type="line"/>
      <point x="416" y="800" type="line"/>
      <point x="608" y="800" type="line"/>
      <point x="608" y="1024" type="line"/>
      <point x="416" y="1024" type="line"/>
      <point x="416" y="1216" type="line" smooth="yes"/>
      <point x="416" y="1248"/>
      <point x="448" y="1280"/>
      <point x="480" y="1280" type="curve" smooth="yes"/>
      <point x="532" y="1280"/>
      <point x="576" y="1264"/>
      <point x="608" y="1248" type="curve"/>
      <point x="608" y="1472" type="line"/>
      <point x="576" y="1488"/>
      <point x="480" y="1504"/>
      <point x="416" y="1504" type="curve" smooth="yes"/>
      <point x="256" y="1504"/>
      <point x="160" y="1440"/>
    </contour>
  </outline>
</glyph>
<glyph name="g" format="1">
  <advance width="992"/>
  <unicode hex="0067"/>
  <outline>
    <contour>
      <point x="480" y="192" type="curve" smooth="yes"/>
      <point x="392" y="192"/>
      <point x="320" y="264"/>
      <point x="320" y="352" type="curve" smooth="yes"/>
      <point x="320" y="672" type="line" smooth="yes"/>
      <point x="320" y="760"/>
      <point x="392" y="832"/>
      <point x="480" y="832" type="curve" smooth="yes"/>
      <point x="568" y="832"/>
      <point x="640" y="760"/>
      <point x="640" y="672" type="curve" smooth="yes"/>
      <point x="640" y="352" type="line" smooth="yes"/>
      <point x="640" y="264"/>
      <point x="568" y="192"/>
    </contour>
    <contour>
      <point x="448" y="-416" type="curve" smooth="yes"/>
      <point x="672" y="-416"/>
      <point x="896" y="-288"/>
      <point x="896" y="0" type="curve" smooth="yes"/>
      <point x="896" y="1024" type="line"/>
      <point x="736" y="1024" type="line"/>
      <point x="679" y="910" type="line"/>
      <point x="624" y="998"/>
      <point x="531" y="1056"/>
      <point x="416" y="1056" type="curve" smooth="yes"/>
      <point x="224" y="1056"/>
      <point x="64" y="896"/>
      <point x="64" y="704" type="curve" smooth="yes"/>
      <point x="64" y="320" type="line" smooth="yes"/>
      <point x="64" y="128"/>
      <point x="224" y="-32"/>
      <point x="416" y="-32" type="curve" smooth="yes"/>
      <point x="508" y="-32"/>
      <point x="584" y="4"/>
      <point x="640" y="63" type="curve"/>
      <point x="640" y="-32" type="line" smooth="yes"/>
      <point x="640" y="-144"/>
      <point x="512" y="-192"/>
      <point x="416" y="-192" type="curve" smooth="yes"/>
      <point x="288" y="-192"/>
      <point x="192" y="-160"/>
      <point x="128" y="-144" type="curve"/>
      <point x="128" y="-352" type="line"/>
      <point x="192" y="-384"/>
      <point x="320" y="-416"/>
    </contour>
  </outline>
</glyph>
<glyph name="h" format="1">
  <advance width="1008"/>
  <unicode hex="0068"/>
  <outline>
    <contour>
      <point x="352" y="672" type="line" smooth="yes"/>
      <point x="352" y="760"/>
      <point x="424" y="832"/>
      <point x="512" y="832" type="curve" smooth="yes"/>
      <point x="600" y="832"/>
      <point x="672" y="760"/>
      <point x="672" y="672" type="curve" smooth="yes"/>
      <point x="672" y="0" type="line"/>
      <point x="928" y="0" type="line"/>
      <point x="928" y="704" type="line" smooth="yes"/>
      <point x="928" y="896"/>
      <point x="768" y="1056"/>
      <point x="576" y="1056" type="curve" smooth="yes"/>
      <point x="484" y="1056"/>
      <point x="408" y="1020"/>
      <point x="352" y="961" type="curve"/>
      <point x="352" y="1536" type="line"/>
      <point x="96" y="1472" type="line"/>
      <point x="96" y="0" type="line"/>
      <point x="352" y="0" type="line"/>
    </contour>
  </outline>
</glyph>
<glyph name="i" format="1">
  <advance width="448"/>
  <unicode hex="0069"/>
  <outline>
    <contour>
      <point x="352" y="1216" type="line"/>
      <point x="352" y="1472" type="line"/>
      <point x="96" y="1472" type="line"/>
      <point x="96" y="1216" type="line"/>
    </contour>
    <contour>
      <point x="352" y="0" type="line"/>
      <point x="352" y="1024" type="line"/>
      <point x="96" y="1024" type="line"/>
      <point x="96" y="0" type="line"/>
    </contour>
  </outline>
</glyph>
<glyph name="k" format="1">
  <advance width="960"/>
  <unicode hex="006B"/>
  <outline>
    <contour>
      <point x="656" y="0" type="line"/>
      <point x="928" y="0" type="line"/>
      <point x="592" y="512" type="line"/>
      <point x="928" y="1024" type="line"/>
      <point x="680" y="1024" type="line"/>
      <point x="352" y="524" type="line"/>
      <point x="352" y="1536" type="line"/>
      <point x="96" y="1472" type="line"/>
      <point x="96" y="0" type="line"/>
      <point x="352" y="0" type="line"/>
      <point x="352" y="463" type="line"/>
    </contour>
  </outline>
</glyph>
<glyph name="m" format="1">
  <advance width="1584"/>
  <unicode hex="006D"/>
  <outline>
    <contour>
      <point x="352" y="672" type="line" smooth="yes"/>
      <point x="352" y="760"/>
      <point x="424" y="832"/>
      <point x="512" y="832" type="curve" smooth="yes"/>
      <point x="600" y="832"/>
      <point x="672" y="760"/>
      <point x="672" y="672" type="curve" smooth="yes"/>
      <point x="672" y="0" type="line"/>
      <point x="928" y="0" type="line"/>
      <point x="928" y="672" type="line" smooth="yes"/>
      <point x="928" y="760"/>
      <point x="1000" y="832"/>
      <point x="1088" y="832" type="curve" smooth="yes"/>
      <point x="1176" y="832"/>
      <point x="1248" y="760"/>
      <point x="1248" y="672" type="curve" smooth="yes"/>
      <point x="1248" y="0" type="line"/>
      <point x="1504" y="0" type="line"/>
      <point x="1504" y="704" type="line" smooth="yes"/>
      <point x="1504" y="896"/>
      <point x="1344" y="1056"/>
      <point x="1152" y="1056" type="curve" smooth="yes"/>
      <point x="1027" y="1056"/>
      <point x="929" y="988"/>
      <point x="876" y="887" type="curve"/>
      <point x="813" y="988"/>
      <point x="701" y="1056"/>
      <point x="576" y="1056" type="curve" smooth="yes"/>
      <point x="461" y="1056"/>
      <point x="368" y="998"/>
      <point x="313" y="910" type="curve"/>
      <point x="256" y="1024" type="line"/>
      <point x="96" y="1024" type="line"/>
      <point x="96" y="0" type="line"/>
      <point x="352" y="0" type="line"/>
    </contour>
  </outline>
</glyph>
<glyph name="n" format="1">
  <advance width="1008"/>
  <unicode hex="006E"/>
  <outline>
    <contour>
      <point x="352" y="672" type="line" smooth="yes"/>
      <point x="352" y="760"/>
      <point x="424" y="832"/>
      <point x="512" y="832" type="curve" smooth="yes"/>
      <point x="600" y="832"/>
      <point x="672" y="760"/>
      <point x="672" y="672" type="curve" smooth="yes"/>
      <point x="672" y="0" type="line"/>
      <point x="928" y="0" type="line"/>
      <point x="928" y="704" type="line" smooth="yes"/>
      <point x="928" y="896"/>
      <point x="768" y="1056"/>
      <point x="576" y="1056" type="curve" smooth="yes"/>
      <point x="461" y="1056"/>
      <point x="368" y="998"/>
      <point x="313" y="910" type="curve"/>
      <point x="256" y="1024" type="line"/>
      <point x="96" y="1024" type="line"/>
      <point x="96" y="0" type="line"/>
      <point x="352" y="0" type="line"/>
    </contour>
  </outline>
</glyph>
<glyph name="o" format="1">
  <advance width="960"/>
  <unicode hex="006F"/>
  <outline>
    <contour>
      <point x="480" y="-32" type="curve" smooth="yes"/>
      <point x="736" y="-32"/>
      <point x="896" y="128"/>
      <point x="896" y="384" type="curve" smooth="yes"/>
      <point x="896" y="640" type="line" smooth="yes"/>
      <point x="896" y="896"/>
      <point x="736" y="1056"/>
      <point x="480" y="1056" type="curve" smooth="yes"/>
      <point x="224" y="1056"/>
      <point x="64" y="896"/>
      <point x="64" y="640" type="curve" smooth="yes"/>
      <point x="64" y="384" type="line" smooth="yes"/>
      <point x="64" y="128"/>
      <point x="224" y="-32"/>
    </contour>
    <contour>
      <point x="480" y="192" type="curve" smooth="yes"/>
      <point x="392" y="192"/>
      <point x="320" y="264"/>
      <point x="320" y="352" type="curve" smooth="yes"/>
      <point x="320" y="672" type="line" smooth="yes"/>
      <point x="320" y="760"/>
      <point x="392" y="832"/>
      <point x="480" y="832" type="curve" smooth="yes"/>
      <point x="568" y="832"/>
      <point x="640" y="760"/>
      <point x="640" y="672" type="curve" smooth="yes"/>
      <point x="640" y="352" type="line" smooth="yes"/>
      <point x="640" y="264"/>
      <point x="568" y="192"/>
    </contour>
  </outline>
</glyph>
<glyph name="p" format="1">
  <advance width="992"/>
  <unicode hex="0070"/>
  <outline>
    <contour>
      <point x="512" y="192" type="curve" smooth="yes"/>
      <point x="424" y="192"/>
      <point x="352" y="264"/>
      <point x="352" y="352" type="curve" smooth="yes"/>
      <point x="352" y="672" type="line" smooth="yes"/>
      <point x="352" y="760"/>
      <point x="424" y="832"/>
      <point x="512" y="832" type="curve" smooth="yes"/>
      <point x="600" y="832"/>
      <point x="672" y="760"/>
      <point x="672" y="672" type="curve" smooth="yes"/>
      <point x="672" y="352" type="line" smooth="yes"/>
      <point x="672" y="264"/>
      <point x="600" y="192"/>
    </contour>
    <contour>
      <point x="352" y="-384" type="line"/>
      <point x="352" y="63" type="line"/>
      <point x="408" y="4"/>
      <point x="484" y="-32"/>
      <point x="576" y="-32" type="curve" smooth="yes"/>
      <point x="768" y="-32"/>
      <point x="928" y="128"/>
      <point x="928" y="320" type="curve" smooth="yes"/>
      <point x="928" y="704" type="line" smooth="yes"/>
      <point x="928" y="896"/>
      <point x="768" y="1056"/>
      <point x="576" y="1056" type="curve" smooth="yes"/>
      <point x="461" y="1056"/>
      <point x="368" y="998"/>
      <point x="313" y="910" type="curve"/>
      <point x="256" y="1024" type="line"/>
      <point x="96" y="1024" type="line"/>
      <point x="96" y="-448" type="line"/>
    </contour>
  </outline>
</glyph>
<glyph name="q" format="1">
  <advance width="992"/>
  <unicode hex="0071"/>
  <outline>
    <contour>
      <point x="640" y="-448" type="line"/>
      <point x="896" y="-384" type="line"/>
      <point x="896" y="1024" type="line"/>
      <point x="736" y="1024" type="line"/>
      <point x="679" y="910" type="line"/>
      <point x="624" y="998"/>
      <point x="531" y="1056"/>
      <point x="416" y="1056" type="curve" smooth="yes"/>
      <point x="224" y="1056"/>
      <point x="64" y="896"/>
      <point x="64" y="704" type="curve" smooth="yes"/>
      <point x="64" y="320" type="line" smooth="yes"/>
      <point x="64" y="128"/>
      <point x="224" y="-32"/>
      <point x="416" y="-32" type="curve" smooth="yes"/>
      <point x="508" y="-32"/>
      <point x="584" y="4"/>
      <point x="640" y="63" type="curve"/>
    </contour>
    <contour>
      <point x="480" y="192" type="curve" smooth="yes"/>
      <point x="392" y="192"/>
      <point x="320" y="264"/>
      <point x="320" y="352" type="curve" smooth="yes"/>
      <point x="320" y="672" type="line" smooth="yes"/>
      <point x="320" y="760"/>
      <point x="392" y="832"/>
      <point x="480" y="832" type="curve" smooth="yes"/>
      <point x="568" y="832"/>
      <point x="640" y="760"/>
      <point x="640" y="672" type="curve" smooth="yes"/>
      <point x="640" y="352" type="line" smooth="yes"/>
      <point x="640" y="264"/>
      <point x="568" y="192"/>
    </contour>
  </outline>
</glyph>
<glyph name="r" format="1">
  <advance width="704"/>
  <unicode hex="0072"/>
  <outline>
    <contour>
      <point x="352" y="672" type="line" smooth="yes"/>
      <point x="352" y="760"/>
      <point x="424" y="832"/>
      <point x="512" y="832" type="curve" smooth="yes"/>
      <point x="576" y="832"/>
      <point x="624" y="816"/>
      <point x="672" y="800" type="curve"/>
      <point x="672" y="1008" type="line"/>
      <point x="656" y="1040"/>
      <point x="608" y="1056"/>
      <point x="576" y="1056" type="curve" smooth="yes"/>
      <point x="461" y="1056"/>
      <point x="368" y="998"/>
      <point x="313" y="910" type="curve"/>
      <point x="256" y="1024" type="line"/>
      <point x="96" y="1024" type="line"/>
      <point x="96" y="0" type="line"/>
      <point x="352" y="0" type="line"/>
    </contour>
  </outline>
</glyph>
<glyph name="s" format="1">
  <advance width="696"/>
  <unicode hex="0073"/>
  <outline>
    <contour>
      <point x="528" y="528" type="curve" smooth="yes"/>
      <point x="416" y="640" type="line" smooth="yes"/>
      <point x="368" y="688"/>
      <point x="320" y="736"/>
      <point x="320" y="768" type="curve" smooth="yes"/>
      <point x="320" y="800"/>
      <point x="336" y="832"/>
      <point x="400" y="832" type="curve" smooth="yes"/>
      <point x="464" y="832"/>
      <point x="552" y="800"/>
      <point x="592" y="784" type="curve"/>
      <point x="592" y="992" type="line"/>
      <point x="560" y="1024"/>
      <point x="448" y="1056"/>
      <point x="368" y="1056" type="curve" smooth="yes"/>
      <point x="176" y="1056"/>
      <point x="64" y="960"/>
      <point x="64" y="768" type="curve" smooth="yes"/>
      <point x="64" y="672"/>
      <point x="128" y="592"/>
      <point x="208" y="512" type="curve" smooth="yes"/>
      <point x="320" y="400" type="line" smooth="yes"/>
      <point x="352" y="368"/>
      <point x="376" y="320"/>
      <point x="376" y="272" type="curve" smooth="yes"/>
      <point x="376" y="224"/>
      <point x="352" y="192"/>
      <point x="272" y="192" type="curve" smooth="yes"/>
      <point x="208" y="192"/>
      <point x="160" y="208"/>
      <point x="96" y="240" type="curve"/>
      <point x="96" y="32" type="line"/>
      <point x="160" y="-8"/>
      <point x="240" y="-32"/>
      <point x="304" y="-32" type="curve" smooth="yes"/>
      <point x="512" y="-32"/>
      <point x="632" y="80"/>
      <point x="632" y="272" type="curve" smooth="yes"/>
      <point x="632" y="336"/>
      <point x="608" y="448"/>
    </contour>
  </outline>
</glyph>
<glyph name="t" format="1">
  <advance width="640"/>
  <unicode hex="0074"/>
  <outline>
    <contour>
      <point x="416" y="0" type="line"/>
      <point x="416" y="800" type="line"/>
      <point x="608" y="800" type="line"/>
      <point x="608" y="1024" type="line"/>
      <point x="416" y="1024" type="line"/>
      <point x="416" y="1280" type="line"/>
      <point x="160" y="1216" type="line"/>
      <point x="160" y="1024" type="line"/>
      <point x="32" y="1024" type="line"/>
      <point x="32" y="800" type="line"/>
      <point x="160" y="800" type="line"/>
      <point x="160" y="0" type="line"/>
    </contour>
  </outline>
</glyph>
<glyph name="u" format="1">
  <advance width="1008"/>
  <unicode hex="0075"/>
  <outline>
    <contour>
      <point x="752" y="0" type="line"/>
      <point x="912" y="0" type="line"/>
      <point x="912" y="1024" type="line"/>
      <point x="656" y="1024" type="line"/>
      <point x="656" y="352" type="line" smooth="yes"/>
      <point x="656" y="264"/>
      <point x="584" y="192"/>
      <point x="496" y="192" type="curve" smooth="yes"/>
      <point x="408" y="192"/>
      <point x="336" y="264"/>
      <point x="336" y="352" type="curve" smooth="yes"/>
      <point x="336" y="1024" type="line"/>
      <point x="80" y="1024" type="line"/>
      <point x="80" y="320" type="line" smooth="yes"/>
      <point x="80" y="128"/>
      <point x="240" y="-32"/>
      <point x="432" y="-32" type="curve" smooth="yes"/>
      <point x="547" y="-32"/>
      <point x="640" y="26"/>
      <point x="695" y="114" type="curve"/>
    </contour>
  </outline>
</glyph>
<glyph name="v" format="1">
  <advance width="832"/>
  <unicode hex="0076"/>
  <outline>
    <contour>
      <point x="256" y="0" type="line"/>
      <point x="576" y="0" type="line"/>
      <point x="800" y="1024" type="line"/>
      <point x="544" y="1024" type="line"/>
      <point x="434" y="319" type="line"/>
      <point x="296" y="1024" type="line"/>
      <point x="32" y="1024" type="line"/>
    </contour>
  </outline>
</glyph>
<glyph name="w" format="1">
  <advance width="1284"/>
  <unicode hex="0077"/>
  <outline>
    <contour>
      <point x="256" y="0" type="line"/>
      <point x="532" y="0" type="line"/>
      <point x="650" y="540" type="line"/>
      <point x="764" y="0" type="line"/>
      <point x="1028" y="0" type="line"/>
      <point x="1036" y="32"/>
      <point x="1252" y="1024"/>
      <point x="1252" y="1024" type="curve"/>
      <point x="1004" y="1024" type="line"/>
      <point x="869" y="334" type="line"/>
      <point x="756" y="1024" type="line"/>
      <point x="548" y="1024" type="line"/>
      <point x="428" y="327" type="line"/>
      <point x="292" y="1024" type="line"/>
      <point x="32" y="1024" type="line"/>
    </contour>
  </outline>
</glyph>
<glyph name="x" format="1">
  <advance width="864"/>
  <unicode hex="0078"/>
  <outline>
    <contour>
      <point x="560" y="0" type="line"/>
      <point x="832" y="0" type="line"/>
      <point x="576" y="512" type="line"/>
      <point x="832" y="1024" type="line"/>
      <point x="592" y="1024" type="line"/>
      <point x="448" y="736" type="line"/>
      <point x="304" y="1024" type="line"/>
      <point x="32" y="1024" type="line"/>
      <point x="288" y="512" type="line"/>
      <point x="32" y="0" type="line"/>
      <point x="272" y="0" type="line"/>
      <point x="416" y="288" type="line"/>
    </contour>
  </outline>
</glyph>
<glyph name="y" format="1">
  <advance width="840"/>
  <unicode hex="0079"/>
  <outline>
    <contour>
      <point x="244" y="-448" type="line"/>
      <point x="500" y="-384" type="line"/>
      <point x="808" y="1024" type="line"/>
      <point x="552" y="1024" type="line"/>
      <point x="426" y="331" type="line"/>
      <point x="296" y="1024" type="line"/>
      <point x="32" y="1024" type="line"/>
      <point x="256" y="0" type="line"/>
      <point x="330" y="0" type="line"/>
    </contour>
  </outline>
</glyph>
<glyph name="z" format="1">
  <advance width="832"/>
  <unicode hex="007A"/>
  <outline>
    <contour>
      <point x="768" y="0" type="line"/>
      <point x="768" y="224" type="line"/>
      <point x="384" y="224" type="line"/>
      <point x="768" y="896" type="line"/>
      <point x="768" y="1024" type="line"/>
      <point x="64" y="1024" type="line"/>
      <point x="64" y="800" type="line"/>
      <point x="480" y="800" type="line"/>
      <point x="64" y="128" type="line"/>
      <point x="64" y="0" type="line"/>
    </contour>
  </outline>
</glyph>
<glyph name="bar" format="1">
  <advance width="352"/>
  <unicode hex="007C"/>
  <outline>
    <contour>
      <point x="64" y="-128" type="line"/>
      <point x="288" y="-128" type="line"/>
      <point x="288" y="1600" type="line"/>
      <point x="64" y="1600" type="line"/>
    </contour>
  </outline>
</glyph>
<glyph name="copyright" format="1">
  <advance width="1392"/>
  <unicode hex="00A9"/>
  <outline>
    <contour>
      <point x="1296" y="624" type="curve" smooth="yes"/>
      <point x="1296" y="852" type="line" smooth="yes"/>
      <point x="1296" y="1220"/>
      <point x="1064" y="1496"/>
      <point x="696" y="1496" type="curve" smooth="yes"/>
      <point x="328" y="1496"/>
      <point x="96" y="1220"/>
      <point x="96" y="852" type="curve" smooth="yes"/>
      <point x="96" y="624" type="line" smooth="yes"/>
      <point x="96" y="256"/>
      <point x="328" y="-16"/>
      <point x="696" y="-16" type="curve" smooth="yes"/>
      <point x="1064" y="-16"/>
      <point x="1296" y="256"/>
    </contour>
    <contour>
      <point x="1088" y="900" type="curve" smooth="yes"/>
      <point x="1088" y="584" type="line" smooth="yes"/>
      <point x="1088" y="352"/>
      <point x="904" y="188"/>
      <point x="696" y="188" type="curve" smooth="yes"/>
      <point x="488" y="188"/>
      <point x="304" y="352"/>
      <point x="304" y="584" type="curve" smooth="yes"/>
      <point x="304" y="900" type="line" smooth="yes"/>
      <point x="304" y="1128"/>
      <point x="488" y="1288"/>
      <point x="696" y="1288" type="curve" smooth="yes"/>
      <point x="904" y="1288"/>
      <point x="1088" y="1128"/>
    </contour>
    <contour>
      <point x="888" y="408" type="curve"/>
      <point x="888" y="564" type="line"/>
      <point x="840" y="540"/>
      <point x="816" y="528"/>
      <point x="748" y="528" type="curve" smooth="yes"/>
      <point x="656" y="528"/>
      <point x="608" y="572"/>
      <point x="608" y="688" type="curve" smooth="yes"/>
      <point x="608" y="828" type="line" smooth="yes"/>
      <point x="608" y="944"/>
      <point x="656" y="992"/>
      <point x="748" y="992" type="curve" smooth="yes"/>
      <point x="816" y="992"/>
      <point x="840" y="976"/>
      <point x="888" y="956" type="curve"/>
      <point x="888" y="1116" type="line"/>
      <point x="864" y="1128"/>
      <point x="808" y="1148"/>
      <point x="724" y="1148" type="curve" smooth="yes"/>
      <point x="544" y="1148"/>
      <point x="428" y="1032"/>
      <point x="428" y="852" type="curve" smooth="yes"/>
      <point x="428" y="668" type="line" smooth="yes"/>
      <point x="428" y="480"/>
      <point x="544" y="368"/>
      <point x="724" y="368" type="curve" smooth="yes"/>
      <point x="808" y="368"/>
      <point x="860" y="392"/>
    </contour>
  </outline>
</glyph>
<glyph name="quoteright" format="1">
  <advance width="500"/>
  <unicode hex="2019"/>
  <outline>
    <contour>
      <point x="384" y="1024" type="line"/>
      <point x="384" y="1472" type="line"/>
      <point x="128" y="1472" type="line"/>
      <point x="128" y="960" type="line"/>
    </contour>
  </outline>
</glyph>
<glyph name="quotedblleft" format="1">
  <advance width="960"/>
  <unicode hex="201C"/>
  <outline>
    <contour>
      <point x="576" y="1472" type="line"/>
      <point x="576" y="1024" type="line"/>
      <point x="832" y="1024" type="line"/>
      <point x="832" y="1536" type="line"/>
    </contour>
    <contour>
      <point x="128" y="1472" type="line"/>
      <point x="128" y="1024" type="line"/>
      <point x="384" y="1024" type="line"/>
      <point x="384" y="1536" type="line"/>
    </contour>
  </outline>
</glyph>
<glyph name="quotedblright" format="1">
  <advance width="960"/>
  <unicode hex="201D"/>
  <outline>
    <contour>
      <point x="832" y="1024" type="line"/>
      <point x="832" y="1472" type="line"/>
      <point x="576" y="1472" type="line"/>
      <point x="576" y="960" type="line"/>
    </contour>
    <contour>
      <point x="384" y="1024" type="line"/>
      <point x="384" y="1472" type="line"/>
      <point x="128" y="1472" type="line"/>
      <point x="128" y="960" type="line"/>
    </contour>
  </outline>
</glyph>
<glyph name="J.alt001" format="1">
  <advance width="500"/>
  <outline>
    <contour>
      <point x="112" y="-448" type="line"/>
      <point x="384" y="-384" type="line"/>
      <point x="384" y="1472" type="line"/>
      <point x="112" y="1472" type="line"/>
    </contour>
  </outline>
</glyph>
<glyph name="Q.alt001" format="1">
  <advance width="1088"/>
  <outline>
    <contour>
      <point x="576" y="-256" type="line"/>
      <point x="832" y="-192" type="line"/>
      <point x="832" y="57" type="line"/>
      <point x="961" y="149"/>
      <point x="1040" y="302"/>
      <point x="1040" y="480" type="curve" smooth="yes"/>
      <point x="1040" y="992" type="line" smooth="yes"/>
      <point x="1040" y="1280"/>
      <point x="832" y="1504"/>
      <point x="544" y="1504" type="curve" smooth="yes"/>
      <point x="256" y="1504"/>
      <point x="48" y="1280"/>
      <point x="48" y="992" type="curve" smooth="yes"/>
      <point x="48" y="480" type="line" smooth="yes"/>
      <point x="48" y="192"/>
      <point x="256" y="-32"/>
      <point x="544" y="-32" type="curve" smooth="yes"/>
      <point x="555" y="-32"/>
      <point x="565" y="-32"/>
      <point x="576" y="-31" type="curve"/>
    </contour>
    <contour>
      <point x="768" y="1024" type="curve" smooth="yes"/>
      <point x="768" y="448" type="line" smooth="yes"/>
      <point x="768" y="320"/>
      <point x="688" y="208"/>
      <point x="544" y="208" type="curve" smooth="yes"/>
      <point x="400" y="208"/>
      <point x="320" y="320"/>
      <point x="320" y="448" type="curve" smooth="yes"/>
      <point x="320" y="1024" type="line" smooth="yes"/>
      <point x="320" y="1152"/>
      <point x="400" y="1264"/>
      <point x="544" y="1264" type="curve" smooth="yes"/>
      <point x="688" y="1264"/>
      <point x="768" y="1152"/>
    </contour>
  </outline>
</glyph>
<glyph name="Q.alt002" format="1">
  <advance width="500"/>
  <outline>
    <contour>
      <point x="560" y="224" type="curve" smooth="yes"/>
      <point x="416" y="224"/>
      <point x="336" y="336"/>
      <point x="336" y="448" type="curve" smooth="yes"/>
      <point x="336" y="1024" type="line" smooth="yes"/>
      <point x="336" y="1136"/>
      <point x="416" y="1248"/>
      <point x="560" y="1248" type="curve" smooth="yes"/>
      <point x="704" y="1248"/>
      <point x="784" y="1136"/>
      <point x="784" y="1024" type="curve" smooth="yes"/>
      <point x="784" y="640" type="line"/>
      <point x="528" y="640" type="line"/>
      <point x="709" y="277" type="line"/>
      <point x="672" y="245"/>
      <point x="622" y="224"/>
    </contour>
    <contour>
      <point x="848" y="0" type="line"/>
      <point x="1104" y="0" type="line"/>
      <point x="996" y="217" type="line"/>
      <point x="1034" y="286"/>
      <point x="1056" y="366"/>
      <point x="1056" y="448" type="curve" smooth="yes"/>
      <point x="1056" y="1024" type="line" smooth="yes"/>
      <point x="1056" y="1280"/>
      <point x="848" y="1504"/>
      <point x="560" y="1504" type="curve" smooth="yes"/>
      <point x="272" y="1504"/>
      <point x="64" y="1280"/>
      <point x="64" y="1024" type="curve" smooth="yes"/>
      <point x="64" y="448" type="line" smooth="yes"/>
      <point x="64" y="192"/>
      <point x="272" y="-32"/>
      <point x="560" y="-32" type="curve" smooth="yes"/>
      <point x="661" y="-32"/>
      <point x="751" y="-5"/>
      <point x="827" y="42" type="curve"/>
    </contour>
  </outline>
</glyph>
<glyph name=".notdef" format="1">
  <advance width="1024"/>
  <outline>
    <contour>
      <point x="102" y="-384" type="line"/>
      <point x="922" y="-384" type="line"/>
      <point x="922" y="1248" type="line"/>
      <point x="102" y="1248" type="line"/>
    </contour>
    <contour>
      <point x="204" y="-282" type="line"/>
      <point x="204" y="1146" type="line"/>
      <point x="820" y="1146" type="line"/>
      <point x="820" y="-282" type="line"/>
    </contour>
  </outline>
</glyph>
<glyph name="a.alt001" format="1">
  <advance width="500"/>
  <outline>
    <contour>
      <point x="480" y="192" type="curve" smooth="yes"/>
      <point x="392" y="192"/>
      <point x="320" y="264"/>
      <point x="320" y="352" type="curve" smooth="yes"/>
      <point x="320" y="672" type="line" smooth="yes"/>
      <point x="320" y="760"/>
      <point x="392" y="832"/>
      <point x="480" y="832" type="curve" smooth="yes"/>
      <point x="568" y="832"/>
      <point x="640" y="760"/>
      <point x="640" y="672" type="curve" smooth="yes"/>
      <point x="640" y="352" type="line" smooth="yes"/>
      <point x="640" y="264"/>
      <point x="568" y="192"/>
    </contour>
    <contour>
      <point x="736" y="0" type="line"/>
      <point x="896" y="0" type="line"/>
      <point x="896" y="1024" type="line"/>
      <point x="736" y="1024" type="line"/>
      <point x="679" y="910" type="line"/>
      <point x="624" y="998"/>
      <point x="531" y="1056"/>
      <point x="416" y="1056" type="curve" smooth="yes"/>
      <point x="224" y="1056"/>
      <point x="64" y="896"/>
      <point x="64" y="704" type="curve" smooth="yes"/>
      <point x="64" y="320" type="line" smooth="yes"/>
      <point x="64" y="128"/>
      <point x="224" y="-32"/>
      <point x="416" y="-32" type="curve" smooth="yes"/>
      <point x="531" y="-32"/>
      <point x="624" y="26"/>
      <point x="679" y="114" type="curve"/>
    </contour>
  </outline>
</glyph>
<glyph name="f_f_i" format="1">
  <advance width="1664"/>
  <outline>
    <contour>
      <point x="1568" y="1216" type="line"/>
      <point x="1568" y="1472" type="line"/>
      <point x="1312" y="1472" type="line"/>
      <point x="1312" y="1216" type="line"/>
    </contour>
    <contour>
      <point x="1568" y="1024" type="line"/>
      <point x="992" y="1024" type="line"/>
      <point x="992" y="1216" type="line" smooth="yes"/>
      <point x="992" y="1248"/>
      <point x="1024" y="1280"/>
      <point x="1056" y="1280" type="curve" smooth="yes"/>
      <point x="1108" y="1280"/>
      <point x="1152" y="1264"/>
      <point x="1184" y="1248" type="curve"/>
      <point x="1184" y="1472" type="line"/>
      <point x="1152" y="1488"/>
      <point x="1056" y="1504"/>
      <point x="992" y="1504" type="curve" smooth="yes"/>
      <point x="832" y="1504"/>
      <point x="736" y="1440"/>
      <point x="736" y="1248" type="curve" smooth="yes"/>
      <point x="736" y="1024" type="line"/>
      <point x="416" y="1024" type="line"/>
      <point x="416" y="1216" type="line" smooth="yes"/>
      <point x="416" y="1248"/>
      <point x="448" y="1280"/>
      <point x="480" y="1280" type="curve" smooth="yes"/>
      <point x="532" y="1280"/>
      <point x="576" y="1264"/>
      <point x="608" y="1248" type="curve"/>
      <point x="608" y="1472" type="line"/>
      <point x="576" y="1488"/>
      <point x="480" y="1504"/>
      <point x="416" y="1504" type="curve" smooth="yes"/>
      <point x="256" y="1504"/>
      <point x="160" y="1440"/>
      <point x="160" y="1248" type="curve" smooth="yes"/>
      <point x="160" y="1024" type="line"/>
      <point x="32" y="1024" type="line"/>
      <point x="32" y="800" type="line"/>
      <point x="160" y="800" type="line"/>
      <point x="160" y="0" type="line"/>
      <point x="416" y="0" type="line"/>
      <point x="416" y="800" type="line"/>
      <point x="736" y="800" type="line"/>
      <point x="736" y="0" type="line"/>
      <point x="992" y="0" type="line"/>
      <point x="992" y="800" type="line"/>
      <point x="1312" y="800" type="line"/>
      <point x="1312" y="0" type="line"/>
      <point x="1568" y="0" type="line"/>
    </contour>
  </outline>
</glyph>
<glyph name="g_alt" format="1">
  <advance width="1062"/>
  <outline>
    <contour>
      <point x="488" y="-448" type="line"/>
      <point x="680" y="-400" type="line" smooth="yes"/>
      <point x="936" y="-336"/>
      <point x="968" y="-192"/>
      <point x="968" y="-96" type="curve" smooth="yes"/>
      <point x="968" y="-16"/>
      <point x="856" y="216"/>
      <point x="632" y="160" type="curve" smooth="yes"/>
      <point x="431" y="110" type="line"/>
      <point x="528" y="288" type="line"/>
      <point x="756" y="295"/>
      <point x="920" y="393"/>
      <point x="920" y="656" type="curve" smooth="yes"/>
      <point x="920" y="724"/>
      <point x="910" y="783"/>
      <point x="892" y="832" type="curve"/>
      <point x="1018" y="832" type="line"/>
      <point x="1018" y="1024" type="line"/>
      <point x="575" y="1052" type="line"/>
      <point x="558" y="1054"/>
      <point x="542" y="1055"/>
      <point x="524" y="1056" type="curve"/>
      <point x="520" y="1056" type="line" smooth="yes"/>
      <point x="515" y="1056"/>
      <point x="509" y="1056"/>
      <point x="504" y="1056" type="curve" smooth="yes"/>
      <point x="264" y="1056"/>
      <point x="88" y="944"/>
      <point x="88" y="656" type="curve" smooth="yes"/>
      <point x="88" y="471"/>
      <point x="169" y="368"/>
      <point x="296" y="320" type="curve"/>
      <point x="104" y="-64" type="line"/>
      <point x="184" y="-144" type="line"/>
      <point x="248" y="-128"/>
      <point x="310" y="-112"/>
      <point x="310" y="-112" type="curve"/>
      <point x="632" y="-32" type="line" smooth="yes"/>
      <point x="696" y="-16"/>
      <point x="744" y="-48"/>
      <point x="744" y="-96" type="curve" smooth="yes"/>
      <point x="744" y="-144"/>
      <point x="728" y="-174"/>
      <point x="664" y="-192" type="curve" smooth="yes"/>
      <point x="328" y="-288" type="line"/>
    </contour>
    <contour>
      <point x="504" y="480" type="curve" smooth="yes"/>
      <point x="408" y="480"/>
      <point x="344" y="544"/>
      <point x="344" y="656" type="curve" smooth="yes"/>
      <point x="344" y="768"/>
      <point x="408" y="832"/>
      <point x="504" y="832" type="curve" smooth="yes"/>
      <point x="600" y="832"/>
      <point x="664" y="768"/>
      <point x="664" y="656" type="curve" smooth="yes"/>
      <point x="664" y="544"/>
      <point x="600" y="480"/>
    </contour>
  </outline>
</glyph>
<glyph name="t_t" format="1">
  <advance width="1120"/>
  <outline>
    <contour>
      <point x="672" y="1024" type="line"/>
      <point x="416" y="1024" type="line"/>
      <point x="416" y="1312" type="line"/>
      <point x="160" y="1248" type="line"/>
      <point x="160" y="1024" type="line"/>
      <point x="32" y="1024" type="line"/>
      <point x="32" y="800" type="line"/>
      <point x="160" y="800" type="line"/>
      <point x="160" y="0" type="line"/>
      <point x="416" y="0" type="line"/>
      <point x="416" y="800" type="line"/>
      <point x="672" y="800" type="line"/>
      <point x="672" y="0" type="line"/>
      <point x="928" y="0" type="line"/>
      <point x="928" y="800" type="line"/>
      <point x="1120" y="800" type="line"/>
      <point x="1120" y="1024" type="line"/>
      <point x="928" y="1024" type="line"/>
      <point x="928" y="1312" type="line"/>
      <point x="672" y="1248" type="line"/>
    </contour>
  </outline>
</glyph>
<glyph name="t_t_i" format="1">
  <advance width="1536"/>
  <outline>
    <contour>
      <point x="1440" y="1216" type="line"/>
      <point x="1440" y="1472" type="line"/>
      <point x="1184" y="1472" type="line"/>
      <point x="1184" y="1216" type="line"/>
    </contour>
    <contour>
      <point x="1440" y="1024" type="line"/>
      <point x="928" y="1024" type="line"/>
      <point x="928" y="1312" type="line"/>
      <point x="672" y="1248" type="line"/>
      <point x="672" y="1024" type="line"/>
      <point x="416" y="1024" type="line"/>
      <point x="416" y="1312" type="line"/>
      <point x="160" y="1248" type="line"/>
      <point x="160" y="1024" type="line"/>
      <point x="32" y="1024" type="line"/>
      <point x="32" y="800" type="line"/>
      <point x="160" y="800" type="line"/>
      <point x="160" y="0" type="line"/>
      <point x="416" y="0" type="line"/>
      <point x="416" y="800" type="line"/>
      <point x="672" y="800" type="line"/>
      <point x="672" y="0" type="line"/>
      <point x="928" y="0" type="line"/>
      <point x="928" y="800" type="line"/>
      <point x="1184" y="800" type="line"/>
      <point x="1184" y="0" type="line"/>
      <point x="1440" y="0" type="line"/>
    </contour>
  </outline>
</glyph>
